<mxfile host="app.diagrams.net" modified="2024-02-07T17:35:25.063Z" agent="Mozilla/5.0 (Windows NT 10.0; Win64; x64) AppleWebKit/537.36 (KHTML, like Gecko) Chrome/120.0.0.0 Safari/537.36 OPR/106.0.0.0" etag="NapTqRAGzs9kXo8uFtuq" version="23.1.1" type="github">
  <diagram name="Page-1" id="Th-d8A-Kc5GLf_tCH1hj">
    <mxGraphModel dx="2195" dy="764" grid="1" gridSize="10" guides="1" tooltips="1" connect="1" arrows="1" fold="1" page="1" pageScale="1" pageWidth="850" pageHeight="1100" math="0" shadow="0">
      <root>
        <mxCell id="0" />
        <mxCell id="1" parent="0" />
        <mxCell id="EI8TxFtbWwYXlnXhcQiq-1" value="" style="ellipse;whiteSpace=wrap;html=1;aspect=fixed;" vertex="1" parent="1">
          <mxGeometry y="160" width="80" height="80" as="geometry" />
        </mxCell>
        <mxCell id="EI8TxFtbWwYXlnXhcQiq-2" value="" style="ellipse;whiteSpace=wrap;html=1;aspect=fixed;" vertex="1" parent="1">
          <mxGeometry x="-400" y="160" width="80" height="80" as="geometry" />
        </mxCell>
        <mxCell id="EI8TxFtbWwYXlnXhcQiq-3" value="" style="endArrow=classic;html=1;rounded=0;entryX=0;entryY=0.5;entryDx=0;entryDy=0;exitX=1;exitY=0.5;exitDx=0;exitDy=0;" edge="1" parent="1" source="EI8TxFtbWwYXlnXhcQiq-13">
          <mxGeometry width="50" height="50" relative="1" as="geometry">
            <mxPoint x="-480" y="200" as="sourcePoint" />
            <mxPoint x="-400" y="200" as="targetPoint" />
          </mxGeometry>
        </mxCell>
        <mxCell id="EI8TxFtbWwYXlnXhcQiq-4" value="" style="endArrow=classic;html=1;rounded=0;entryX=0;entryY=0.5;entryDx=0;entryDy=0;exitX=1;exitY=0.5;exitDx=0;exitDy=0;" edge="1" parent="1" target="EI8TxFtbWwYXlnXhcQiq-1">
          <mxGeometry width="50" height="50" relative="1" as="geometry">
            <mxPoint x="-120" y="200" as="sourcePoint" />
            <mxPoint x="10" y="230" as="targetPoint" />
          </mxGeometry>
        </mxCell>
        <mxCell id="EI8TxFtbWwYXlnXhcQiq-5" value="&lt;b style=&quot;font-size: 15px;&quot;&gt;S22&lt;/b&gt;" style="text;html=1;strokeColor=none;fillColor=none;align=center;verticalAlign=middle;whiteSpace=wrap;rounded=0;fontSize=15;" vertex="1" parent="1">
          <mxGeometry x="-390" y="185" width="60" height="30" as="geometry" />
        </mxCell>
        <mxCell id="EI8TxFtbWwYXlnXhcQiq-6" value="&lt;b&gt;&lt;font style=&quot;font-size: 15px;&quot;&gt;S82&lt;/font&gt;&lt;/b&gt;" style="text;html=1;strokeColor=none;fillColor=none;align=center;verticalAlign=middle;whiteSpace=wrap;rounded=0;" vertex="1" parent="1">
          <mxGeometry x="10" y="185" width="60" height="30" as="geometry" />
        </mxCell>
        <mxCell id="EI8TxFtbWwYXlnXhcQiq-7" value="E" style="text;html=1;strokeColor=none;fillColor=none;align=center;verticalAlign=middle;whiteSpace=wrap;rounded=0;fontSize=15;" vertex="1" parent="1">
          <mxGeometry x="-114" y="167.5" width="105" height="30" as="geometry" />
        </mxCell>
        <mxCell id="EI8TxFtbWwYXlnXhcQiq-8" value="" style="ellipse;whiteSpace=wrap;html=1;aspect=fixed;" vertex="1" parent="1">
          <mxGeometry x="200" y="160" width="80" height="80" as="geometry" />
        </mxCell>
        <mxCell id="EI8TxFtbWwYXlnXhcQiq-9" value="" style="ellipse;whiteSpace=wrap;html=1;aspect=fixed;" vertex="1" parent="1">
          <mxGeometry x="207.5" y="167.5" width="65" height="65" as="geometry" />
        </mxCell>
        <mxCell id="EI8TxFtbWwYXlnXhcQiq-10" value="" style="endArrow=classic;html=1;rounded=0;entryX=0;entryY=0.5;entryDx=0;entryDy=0;exitX=1;exitY=0.5;exitDx=0;exitDy=0;" edge="1" parent="1" target="EI8TxFtbWwYXlnXhcQiq-8">
          <mxGeometry width="50" height="50" relative="1" as="geometry">
            <mxPoint x="80" y="200" as="sourcePoint" />
            <mxPoint x="210" y="230" as="targetPoint" />
          </mxGeometry>
        </mxCell>
        <mxCell id="EI8TxFtbWwYXlnXhcQiq-11" value="&lt;b&gt;&lt;font style=&quot;font-size: 15px;&quot;&gt;S83&lt;/font&gt;&lt;/b&gt;" style="text;html=1;strokeColor=none;fillColor=none;align=center;verticalAlign=middle;whiteSpace=wrap;rounded=0;" vertex="1" parent="1">
          <mxGeometry x="210" y="185" width="60" height="30" as="geometry" />
        </mxCell>
        <mxCell id="EI8TxFtbWwYXlnXhcQiq-12" value="N" style="text;html=1;strokeColor=none;fillColor=none;align=center;verticalAlign=middle;whiteSpace=wrap;rounded=0;fontSize=15;" vertex="1" parent="1">
          <mxGeometry x="90" y="167.5" width="105" height="30" as="geometry" />
        </mxCell>
        <mxCell id="EI8TxFtbWwYXlnXhcQiq-13" value="" style="ellipse;whiteSpace=wrap;html=1;aspect=fixed;" vertex="1" parent="1">
          <mxGeometry x="-600" y="160" width="80" height="80" as="geometry" />
        </mxCell>
        <mxCell id="EI8TxFtbWwYXlnXhcQiq-14" value="" style="endArrow=classic;html=1;rounded=0;entryX=0;entryY=0.5;entryDx=0;entryDy=0;" edge="1" parent="1">
          <mxGeometry width="50" height="50" relative="1" as="geometry">
            <mxPoint x="-680" y="200" as="sourcePoint" />
            <mxPoint x="-600" y="200" as="targetPoint" />
          </mxGeometry>
        </mxCell>
        <mxCell id="EI8TxFtbWwYXlnXhcQiq-15" value="&lt;b style=&quot;font-size: 15px;&quot;&gt;S0&lt;/b&gt;" style="text;html=1;strokeColor=none;fillColor=none;align=center;verticalAlign=middle;whiteSpace=wrap;rounded=0;fontSize=15;" vertex="1" parent="1">
          <mxGeometry x="-590" y="185" width="60" height="30" as="geometry" />
        </mxCell>
        <mxCell id="EI8TxFtbWwYXlnXhcQiq-16" value="T" style="text;html=1;strokeColor=none;fillColor=none;align=center;verticalAlign=middle;whiteSpace=wrap;rounded=0;fontSize=15;" vertex="1" parent="1">
          <mxGeometry x="-520" y="167.5" width="105" height="30" as="geometry" />
        </mxCell>
        <mxCell id="EI8TxFtbWwYXlnXhcQiq-17" value="" style="ellipse;whiteSpace=wrap;html=1;aspect=fixed;" vertex="1" parent="1">
          <mxGeometry x="-400" y="280" width="80" height="80" as="geometry" />
        </mxCell>
        <mxCell id="EI8TxFtbWwYXlnXhcQiq-18" value="" style="ellipse;whiteSpace=wrap;html=1;aspect=fixed;" vertex="1" parent="1">
          <mxGeometry x="-600" y="280" width="80" height="80" as="geometry" />
        </mxCell>
        <mxCell id="EI8TxFtbWwYXlnXhcQiq-19" value="" style="endArrow=classic;html=1;rounded=0;entryX=0;entryY=0.5;entryDx=0;entryDy=0;" edge="1" parent="1">
          <mxGeometry width="50" height="50" relative="1" as="geometry">
            <mxPoint x="-680" y="320" as="sourcePoint" />
            <mxPoint x="-600" y="320" as="targetPoint" />
          </mxGeometry>
        </mxCell>
        <mxCell id="EI8TxFtbWwYXlnXhcQiq-20" value="" style="endArrow=classic;html=1;rounded=0;entryX=0;entryY=0.5;entryDx=0;entryDy=0;exitX=1;exitY=0.5;exitDx=0;exitDy=0;" edge="1" parent="1" source="EI8TxFtbWwYXlnXhcQiq-18" target="EI8TxFtbWwYXlnXhcQiq-17">
          <mxGeometry width="50" height="50" relative="1" as="geometry">
            <mxPoint x="-510" y="350" as="sourcePoint" />
            <mxPoint x="-390" y="350" as="targetPoint" />
          </mxGeometry>
        </mxCell>
        <mxCell id="EI8TxFtbWwYXlnXhcQiq-21" value="&lt;b style=&quot;font-size: 15px;&quot;&gt;S0&lt;/b&gt;" style="text;html=1;strokeColor=none;fillColor=none;align=center;verticalAlign=middle;whiteSpace=wrap;rounded=0;fontSize=15;" vertex="1" parent="1">
          <mxGeometry x="-590" y="305" width="60" height="30" as="geometry" />
        </mxCell>
        <mxCell id="EI8TxFtbWwYXlnXhcQiq-22" value="&lt;b&gt;&lt;font style=&quot;font-size: 15px;&quot;&gt;S24&lt;/font&gt;&lt;/b&gt;" style="text;html=1;strokeColor=none;fillColor=none;align=center;verticalAlign=middle;whiteSpace=wrap;rounded=0;" vertex="1" parent="1">
          <mxGeometry x="-390" y="305" width="60" height="30" as="geometry" />
        </mxCell>
        <mxCell id="EI8TxFtbWwYXlnXhcQiq-23" value="B" style="text;html=1;strokeColor=none;fillColor=none;align=center;verticalAlign=middle;whiteSpace=wrap;rounded=0;fontSize=15;" vertex="1" parent="1">
          <mxGeometry x="-514" y="287.5" width="105" height="30" as="geometry" />
        </mxCell>
        <mxCell id="EI8TxFtbWwYXlnXhcQiq-24" value="" style="ellipse;whiteSpace=wrap;html=1;aspect=fixed;" vertex="1" parent="1">
          <mxGeometry x="-200" y="280" width="80" height="80" as="geometry" />
        </mxCell>
        <mxCell id="EI8TxFtbWwYXlnXhcQiq-25" value="" style="ellipse;whiteSpace=wrap;html=1;aspect=fixed;" vertex="1" parent="1">
          <mxGeometry x="-192.5" y="287.5" width="65" height="65" as="geometry" />
        </mxCell>
        <mxCell id="EI8TxFtbWwYXlnXhcQiq-26" value="" style="endArrow=classic;html=1;rounded=0;entryX=0;entryY=0.5;entryDx=0;entryDy=0;exitX=1;exitY=0.5;exitDx=0;exitDy=0;" edge="1" parent="1" target="EI8TxFtbWwYXlnXhcQiq-24">
          <mxGeometry width="50" height="50" relative="1" as="geometry">
            <mxPoint x="-320" y="320" as="sourcePoint" />
            <mxPoint x="-190" y="350" as="targetPoint" />
          </mxGeometry>
        </mxCell>
        <mxCell id="EI8TxFtbWwYXlnXhcQiq-27" value="&lt;b&gt;&lt;font style=&quot;font-size: 15px;&quot;&gt;S25&lt;/font&gt;&lt;/b&gt;" style="text;html=1;strokeColor=none;fillColor=none;align=center;verticalAlign=middle;whiteSpace=wrap;rounded=0;" vertex="1" parent="1">
          <mxGeometry x="-190" y="305" width="60" height="30" as="geometry" />
        </mxCell>
        <mxCell id="EI8TxFtbWwYXlnXhcQiq-28" value="Y" style="text;html=1;strokeColor=none;fillColor=none;align=center;verticalAlign=middle;whiteSpace=wrap;rounded=0;fontSize=15;" vertex="1" parent="1">
          <mxGeometry x="-310" y="287.5" width="105" height="30" as="geometry" />
        </mxCell>
        <mxCell id="EI8TxFtbWwYXlnXhcQiq-29" value="" style="ellipse;whiteSpace=wrap;html=1;aspect=fixed;" vertex="1" parent="1">
          <mxGeometry x="-200" y="160" width="80" height="80" as="geometry" />
        </mxCell>
        <mxCell id="EI8TxFtbWwYXlnXhcQiq-30" value="" style="endArrow=classic;html=1;rounded=0;entryX=0;entryY=0.5;entryDx=0;entryDy=0;exitX=1;exitY=0.5;exitDx=0;exitDy=0;" edge="1" parent="1" target="EI8TxFtbWwYXlnXhcQiq-29">
          <mxGeometry width="50" height="50" relative="1" as="geometry">
            <mxPoint x="-320" y="200" as="sourcePoint" />
            <mxPoint x="-190" y="230" as="targetPoint" />
          </mxGeometry>
        </mxCell>
        <mxCell id="EI8TxFtbWwYXlnXhcQiq-31" value="&lt;b&gt;&lt;font style=&quot;font-size: 15px;&quot;&gt;S81&lt;/font&gt;&lt;/b&gt;" style="text;html=1;strokeColor=none;fillColor=none;align=center;verticalAlign=middle;whiteSpace=wrap;rounded=0;" vertex="1" parent="1">
          <mxGeometry x="-190" y="185" width="60" height="30" as="geometry" />
        </mxCell>
        <mxCell id="EI8TxFtbWwYXlnXhcQiq-32" value="H" style="text;html=1;strokeColor=none;fillColor=none;align=center;verticalAlign=middle;whiteSpace=wrap;rounded=0;fontSize=15;" vertex="1" parent="1">
          <mxGeometry x="-314" y="167.5" width="105" height="30" as="geometry" />
        </mxCell>
      </root>
    </mxGraphModel>
  </diagram>
</mxfile>
